<?xml version="1.0" encoding="UTF-8"?>
<svg id="Work" xmlns="http://www.w3.org/2000/svg" viewBox="0 0 958.33 387.06">
  <defs>
    <style>
      .cls-1 {
        stroke: #fff;
        stroke-linecap: round;
        stroke-linejoin: round;
        stroke-width: 1.62px;
      }

      .cls-1, .cls-2 {
        fill: #e30064;
      }

      .cls-3 {
        fill: #fff;
      }

      .cls-4 {
        fill: #0057a8;
      }
    </style>
  </defs>
  <g>
    <polygon class="cls-4" points="666.82 327.42 650.77 355.49 638.25 355.49 31.58 355.49 54.4 227.55 805.26 227.55 805.26 267.92 666.82 327.42"/>
    <g>
      <g>
        <path class="cls-3" d="M809.2,361.09h-.08c-2.64-.15-5.39-.2-8.04-.25-.94-.02-1.88-.04-2.82-.06-1.59-.04-3.17-.07-4.76-.09h-.52c-.2-.01-.41-.02-.62-.03-.56-.02-2.01-.08-3.49-.96,0,0-.76.01-1.08.02l-4.25.5-.06-.45c-1.02.02-6.15.1-6.15.1-1.34.02-2.67.04-4.01.06,0,0-.68,0-.91,0-.13,0-.26,0-.39,0h-.37s-.45-.03-.45-.03c-.31-.02-.69-.06-1.11-.16-.81-.18-1.52-.47-2.16-.89-1.7-1.11-2.67-2.94-2.68-5.03,0-.84.16-1.73.48-2.64.39-1.14.86-2.9,1.31-4.61.57-2.17,1.16-4.42,1.79-6.11.03-.09.06-.17.09-.24-.82-.8-1.32-1.67-1.66-2.27l-.11-.19c-.74-1.36-1.11-2.75-1.11-4.14,0-.66.09-1.31.25-1.93-1.26.36-2.61.65-4.06.71-.16,0-.37.01-.57.01-.66,0-1.3-.05-1.93-.15-.19-.03-.44-.08-.67-.13l-.23-.05c-1.89-.47-3.84-.7-5.97-.7-.45,0-.9.01-1.35.03-.64.03-1.29.08-1.98.15-8.85.88-17.86,1.68-26.83,2.39-6.69.54-13.49,1.03-20.07,1.51-4.91.36-9.83.72-14.74,1.09l-.49.02c-.21,0-.43.01-.66.01-2.32,0-4.46-.52-6.36-.98l-.66-.16c-.27-.07-.55-.13-.82-.19l-.18-.04c-.34-.07-.63-.13-.92-.18-.09-.01-.76-.09-.76-.09h-.32s-.15.02-.15.02l-.28-.03-.2.02h-.11s-.22.05-.22.05l-.06.02-.12.03-.22.08s-.13.07-.21.11c-3.25,1.87-4.77,4.47-4.9,8.42-.09,2.76-.55,5.39-.99,7.93-.13.73-.25,1.45-.37,2.18-.19,1.24-.72,2.42-1.53,3.37-.21.25-.47.52-.78.78l-.17.14c-.64.5-1.39.89-2.16,1.13l-.1.03c-.24.07-.49.14-.76.2l-.17.03c-.47.08-.9.1-1.18.1-.72.02-5.11.16-5.11.16-4.03.12-8.2.24-12.31.32h-.24c-5.23,0-7.57-3.28-7.57-6.54,0-1.1.24-2.24.75-3.51,1.13-2.9,2.47-5.97,4.2-9.62.06-.12.1-.22.13-.29h0c-.93-1.23-1.51-2.44-2.02-3.51-.13-.27-.26-.54-.39-.81-.49-1-.74-2.01-.74-3.02,0-1.59.62-3.11,1.74-4.27.52-.55,1.14-1.01,1.9-1.42l.08-.04c.93-.48,1.96-.93,3.23-1.41,4.41-1.67,8.23-4.56,11.98-9.08-.22-.7-.33-1.4-.33-2.09,0-1.3.39-3.21,2.24-4.96.64-.61,1.28-1.24,1.93-1.86,1.83-1.78,3.71-3.61,5.76-5.33.56-.47,1.15-.87,1.75-1.22-5.19-2.99-10.49-7.81-10.49-15.7,0-.6.03-1.22.09-1.84.07-.66.1-1.31.1-1.94,0-1.77-.27-3.44-.81-4.95-.32-.9-.88-1.53-1.84-2.05-.48-.26-.97-.49-1.49-.69-1.28-.49-2.62-.74-3.97-.74-.15,0-.31,0-.46.01-.2,0-.35.02-.52.03-.45.04-.95.12-1.43.24-.95.22-1.88.59-2.73,1.07-.32.19-.62.37-.88.55-.41.28-.81.61-1.17.95-.13.12-.24.22-.33.32l-.07.07c-.72.74-1.46,1.42-2.19,2.02l-.31.24c-.32.25-.63.49-.96.71-.25.17-.45.31-.64.43-.32.21-.65.41-.99.6-.26.15-.48.27-.69.37-.48.26-.94.48-1.41.68-.33.13-.61.24-.9.34-.62.24-1.22.41-1.76.56l-.14.04c-1.31.31-2.56.49-3.81.54-.28.01-.57.02-.87.02-1.65,0-3.38-.21-5.15-.61-.41-.1-.81-.14-1.28-.14-.12,0-.24,0-.36,0-1,.04-2.13.26-3.33.49-.5.1-1,.19-1.49.28-.48.08-.94.14-1.46.21-.4.05-.84.11-1.37.19l-9.79,1.49,5.21-8.42c.24-.38.45-.74.64-1.08.47-.79.95-1.61,1.56-2.41,3.54-4.66,8.61-7.65,15.06-8.88,2.26-.42,4.46-.79,6.55-1.11,1.61-.24,3.36-.47,5.49-.72h.1c.27-.04.54-.08.81-.1,1.07-.12,2.14-.23,3.21-.33.69-.06,1.34-.11,1.98-.16l.41-.04c.27-.03.54-.05.82-.07h.08c.36-.04.73-.06,1.09-.08h.26c1.07-.1,2.21-.16,3.34-.21.17,0,.28-.01.39-.02.2-.01.4-.03.61-.03l1.46-.06c.4-.01.76-.02,1.12-.02,2.36,0,4.62.26,6.72.78,4.19,1.02,9.66,4.06,11.87,12.69.29,1.13.47,2.21.65,3.25.13.75.25,1.46.4,2.12.12.52.22.92.33,1.24.19.6.4,1.04.61,1.34l.05.07c.06.07.09.1.1.11.06.06.18.16.56.24.16.03.38.05.61.06h.01c.14,0,.29,0,.44,0,.46-.02.91-.07,1.41-.14,7.88-1.26,13.6-3.1,18.48-5.97,2.18-1.28,29.78-14.64,35.29-17.31l6.54-3.16c12.87-15.84,24.85-30.3,30.17-33.4,3.16-1.82,6.6-3.55,10.23-5.17,8.02-3.56,16.41-6.33,25.02-9.09l.13-.04c.27-.08.54-.17.81-.25l.26-.08c3.87-1.25,6.84-2.03,9.63-2.52,1.17-.21,2.4-.39,3.63-.51.76-.07,1.36-.11,1.94-.12.46-.02,1-.03,1.53-.03,2.81,0,5.56.35,8.4,1.06.69.18,1.5.39,2.33.66,1.9.6,3.89,1.37,5.87,2.28l.16.08c.43.22.86.44,1.28.68.36.2,1.84,1.03,1.84,1.03,1.79,1.03,3.62,2.16,5.64,3.49l.16.11c.75.51,1.49,1.02,2.23,1.53.97.69,1.99,1.44,3.12,2.3,5.05,3.87,9.83,8.18,14.62,13.19l.2.21c.66.71,1.31,1.4,1.95,2.1,3.3,3.61,7.5,11.64,12.65,21.76l.66,1.3c4.51,8.92,9.62,19.03,12.48,22.12,2.96,3.16,6.39,6.31,10.15,9.32,5.72,4.58,11.46,6.81,17.55,6.81.37,0,.75,0,1.13-.03l2.58,8.49c-.84.51-1.64.94-2.46,1.31-.4.19-.8.37-1.22.54-.45.19-.89.35-1.26.49-.42.15-.84.29-1.26.42-.41.13-.83.24-1.26.36-.99.25-1.83.43-2.62.56-5.27.88-10.17,1.41-14.99,1.62-1.44.07-2.99.1-4.59.1-.47,0-.94,0-1.41,0-2.08-.02-4.17-.37-6.22-1.04-.35-.12-.7-.24-1.06-.38-.34.71-.68,1.42-1.01,2.13-1.3,2.81-2.6,5.62-3.9,8.43-2.18,4.71-4.36,9.43-6.55,14.13-.98,2.02-2.34,3.35-3.96,3.91-5.33,1.85-11.58,3.85-18.4,4.16-.34.02-.67.02-.98.02h-.23c-.28,0-.54-.01-.8-.03-1.73-.09-3.3-.48-4.69-1.16-.62-.3-1.19-.66-1.74-1.08l-.07-.06c-.62-.49-1.18-1.06-1.66-1.68-.13-.17-.27-.35-.4-.54-.12-.17-.28-.4-.44-.69-.14-.24-.27-.49-.4-.75-.38-.76-.7-1.62-.96-2.56-.5-1.85-.95-3.69-1.37-5.51-.46.39-.91.77-1.37,1.15-1,.85-2.06,1.75-3.12,2.63l-.82.69c-.39.32-.77.64-1.16.95-.4.33-.8.67-1.21,1-.19.16-.43.38-.68.63-.38.38-.72.75-1.05,1.17l-.18.22-.07.1-.12.15c-.11.13-.2.26-.3.4l-.16.22c-.13.17-.26.35-.38.53l-.2.28-.65.95-.32.46c-.6.87-1.23,1.77-1.92,2.66-1.29,1.66-2.71,4.07-4.07,6.4-1.44,2.45-2.93,4.99-4.48,7.03l-.47.61c-.23.3-.46.59-.68.9l-.28.35c-.06.07-.12.14-.17.22v.02s-1.75,2.32-1.75,2.32c-1.31,1.68-3.05,2.58-5.17,2.66-.14,0-.29,0-.45,0h-.42Z"/>
        <path class="cls-4" d="M872.67,307.06h0c-.24-.05-.48-.1-.71-.16l-.09-.02-.08-.02-.19-.03c-.12-.03-.23-.06-.34-.08-.23-.05-.45-.1-.67-.15-.33-.07-.67-.14-.98-.23-.32-.07-.65-.13-.98-.21-.22-.05-.43-.1-.65-.15-.22-.05-.44-.1-.67-.15h0s.01-.01.01-.01c.13-.22.27-.42.4-.63.3-.46.61-.92.92-1.38.32-.46.63-.91.95-1.35l.14-.19c.12-.15.23-.3.33-.45l.2-.27c.2-.28.42-.55.63-.82.22-.28.45-.57.68-.84.23-.3.45-.57.68-.85.23-.27.47-.54.7-.81.2-.24.39-.45.58-.66l.12-.15c.24-.27.47-.52.73-.79.24-.26.48-.51.73-.77.13.07.27.12.41.21-.95,3.61-1.89,7.22-2.86,10.98M802.99,325.72c.13.16.23.32.33.48.06.09.12.18.16.28l.05.09c.07.13.13.25.18.38.11.25.21.5.28.76.75,2.76,1.34,5.45-.94,7.98h0c-.88.98-1.79,1.54-2.9,1.59-.25.01-.52,0-.78-.04-.25-.04-.49-.07-.74-.12-.5-.08-.99-.18-1.5-.29-1.27-.26-2.58-.57-4.03-.88h0s0,0,0,0c.36-.52.69-1.03,1.03-1.54h0c.3-.46.61-.91.9-1.35v-.03c.3-.43.58-.87.88-1.3,1.77-2.65,3.47-5.21,5.22-7.8.17.13.35.24.51.39h0c.16.15.32.28.48.41h0c.34.32.63.65.88.99M786.75,347.86c-.51,2.45-1.53,3.49-3.74,3.59-.29.01-.6,0-.92,0-1.41-.06-2.82-.14-4.3-.23-1.36-.08-2.79-.16-4.31-.25,1.08-2.45,1.9-6.89,2.97-8.91.51-.95,1.29-1.45,2.22-1.49.51-.02,1.08.09,1.67.35,1.37.6,2.7,1.27,4.05,1.93.47.23.93.47,1.41.69.87.42,1.17,3.34.95,4.32M659.15,349.58c-.16,1.46-1.45,2.18-3.56,2.3-1.09-.18-2.18-.28-3.25-.53-1.1-.24-1.81-1.03-1.51-2.09.54-1.85,1.09-3.78,2.09-5.4.67-1.1,1.97-1.69,3.31-1.75.92-.04,1.87.17,2.64.61.31.18.59.67.59,1.01-.04,1.94-.11,3.9-.32,5.84M902.63,292.01c-3.76-3.01-7.36-6.27-10.64-9.78-3.45-3.72-8.73-14.3-13.86-24.45-4.53-8.91-8.95-17.48-11.95-20.75-.68-.75-1.37-1.48-2.07-2.23-4.4-4.59-9.07-8.86-14.09-12.71-.98-.75-1.97-1.48-2.97-2.19-.76-.53-1.52-1.05-2.29-1.57-1.74-1.15-3.51-2.26-5.34-3.31-.6-.34-1.22-.69-1.83-1.03-.37-.21-.75-.41-1.13-.6-1.88-.86-3.68-1.55-5.38-2.09-.69-.22-1.37-.4-2.03-.57-2.99-.75-5.81-1.02-8.68-.89-.54.02-1.08.05-1.63.1-1.08.11-2.18.26-3.29.46-2.8.5-5.75,1.31-9.04,2.37-.39.12-.79.26-1.19.37-8.25,2.64-16.61,5.39-24.56,8.91-3.34,1.48-6.62,3.12-9.79,4.94-7.13,4.14-34.08,39.23-35.84,40.62-.24.18-.62.18-.92.27-.01-.32-.36-3.88-.26-4.16,0,0-32.84,15.89-34.97,17.13-6.2,3.64-13.08,5.43-20.13,6.55-.64.1-1.25.16-1.83.18-.26.01-.53.02-.78.01-.49-.01-.96-.07-1.39-.14-1.08-.21-2-.64-2.74-1.31-.3-.26-.56-.56-.82-.92h0c-.5-.71-.91-1.56-1.24-2.59-.17-.51-.31-1.07-.45-1.67-.39-1.74-.59-3.52-1.02-5.24-1.17-4.57-3.6-8.18-8.53-9.38-2.11-.52-4.37-.71-6.55-.63l-1.51.07c-.31.01-.62.04-.93.05-1.09.05-2.19.11-3.27.19-.43.03-.87.05-1.29.09h-.13c-.4.03-.77.08-1.16.11-.63.05-1.26.1-1.9.15-1.06.1-2.13.21-3.19.33-.29.03-.56.06-.84.09-1.79.21-3.57.44-5.35.71-2.13.32-4.26.68-6.38,1.08-4.92.94-9.2,3.1-12.28,7.16-.67.88-1.18,1.87-1.95,3.12,1.19-.18,1.96-.26,2.74-.39,1.8-.31,3.6-.76,5.42-.84.93-.04,1.88.01,2.85.24,1.68.38,3.28.55,4.81.48,1.02-.04,1.99-.2,2.94-.42.47-.13.94-.26,1.39-.44.24-.08.46-.17.7-.26.38-.16.74-.34,1.11-.55.14-.06.29-.14.44-.23.28-.17.56-.33.83-.51.16-.1.32-.21.49-.33.34-.23.66-.49,1-.75.61-.5,1.21-1.05,1.81-1.66.17-.18.36-.36.54-.53.54-.51,1.12-.97,1.71-1.38.4-.27.81-.53,1.23-.77,1.25-.71,2.59-1.22,3.95-1.54.69-.16,1.38-.27,2.08-.34.24-.02.47-.03.71-.04,2.09-.09,4.23.25,6.28,1.03.69.27,1.36.58,2.03.94,1.88,1.02,3.25,2.51,3.96,4.54,1.02,2.89,1.25,5.89.95,8.88-.88,8.81,6.67,13.02,14.99,16.24l.26.11c.17.07.34.16.53.25l.29.14c-1.24,1.72-3,2.25-4.76,2.89-1.5.55-3.08,1.18-4.29,2.19-2.61,2.19-5,4.64-7.47,7-.75.71-1.03,1.5-.62,2.58.45,1.17.4,2.44-.42,3.47-3.89,4.83-8.44,8.8-14.36,11.04-.94.36-1.89.76-2.79,1.22-.29.16-.55.33-.74.54-.52.53-.64,1.23-.22,2.07.61,1.21,1.12,2.49,1.93,3.55,1.31,1.68,1.28,3.25.41,5.08-1.46,3.07-2.86,6.18-4.08,9.34-1.05,2.64-.14,3.83,2.73,3.78,4.34-.08,8.69-.22,13.03-.34,1.45-.04,2.89-.09,4.34-.13.19,0,.39-.02.56-.05.15-.03.28-.07.41-.11.26-.08.51-.21.71-.37.1-.09.19-.18.27-.27.25-.3.43-.67.5-1.13.51-3.18,1.2-6.35,1.31-9.54.18-5.44,2.46-9.51,7.22-12.25.15-.09.3-.17.46-.24.15-.07.32-.14.47-.2.16-.08.34-.13.51-.17.14-.05.29-.09.43-.11l.13-.03c.14-.04.28-.06.41-.08.18-.03.36-.05.54-.06l.29-.02c.14,0,.28-.01.43,0,.14-.02.27-.01.4,0,.24,0,.47.01.71.05l.3.03c.17.02.33.04.49.06.4.06.8.14,1.2.23l.18.04c.34.07.69.15,1.03.24,2.08.5,4.2,1.08,6.32.98h.32c11.61-.91,23.21-1.69,34.8-2.62,8.91-.7,17.81-1.49,26.71-2.37.76-.08,1.51-.14,2.27-.18,2.89-.12,5.73.08,8.62.81.17.04.35.07.53.1.52.09,1.06.11,1.57.08,1.62-.07,3.23-.6,4.85-1.12,1.62-.52,3.23-1.05,4.87-1.12.61-.03,1.21,0,1.82.13,1.69.34,3.36.73,5.03,1.1v.53c-1.07.55-2.17,1.07-3.24,1.66-1.15.64-2.35,1.21-3.38,2.02-1.55,1.23-1.78,2.82-.84,4.54.3.52.61,1.09,1.07,1.48,1.68,1.46,1.57,3.17.88,5-1.03,2.78-2.09,7.84-3.06,10.63-.39,1.12-.26,1.91.37,2.32.18.12.41.2.68.26.13.03.27.04.43.06l.25.02h.24c.41,0,.83,0,1.23,0,2.36-.03,4.73-.08,7.1-.11,2.38-.03,4.74-.08,7.11-.11h.01s0,.01,0,.01h.01c.68,0,1.35-.02,2.04-.03.38,0,.93-.03,1.12.19.55.64,1.22.75,1.93.78.16,0,.31.01.47.01,1.77.03,3.53.06,5.3.1,3.67.08,7.35.11,11,.31.18,0,.36,0,.53,0,.72-.03,1.23-.25,1.73-.9.09-.12.18-.23.27-.36.3-.4.61-.82.92-1.22h0c.14-.21.3-.41.45-.61.15-.21.31-.4.47-.6.39-.54.8-1.06,1.21-1.6,2.83-3.73,5.69-9.76,8.57-13.46.73-.94,1.4-1.93,2.08-2.9.22-.33.45-.66.67-.99.23-.32.45-.65.69-.96.19-.24.36-.49.56-.73.11-.16.25-.32.37-.48.43-.54.89-1.04,1.37-1.52.33-.33.67-.64,1.02-.94.79-.65,1.57-1.3,2.36-1.95.26-.23.52-.44.78-.66,1.04-.87,2.09-1.75,3.13-2.64,1.04-.87,2.08-1.75,3.12-2.63,1.04-.88,2.08-1.76,3.12-2.63.23-.19.5-.33.86-.57.15.7.26,1.3.41,1.87.85,3.56,1.63,7.12,2.57,10.63.18.66.4,1.27.67,1.78.08.16.16.32.25.47.06.12.14.24.21.34.08.12.16.23.24.33.27.35.58.67.92.94.31.24.63.43.97.6.86.42,1.86.65,2.99.71.17.02.34.02.52.02.31,0,.63,0,.97-.02,5.93-.27,11.56-1.99,17.11-3.91.55-.19,1.03-.93,1.31-1.52,3.49-7.49,6.96-15.03,10.44-22.54.98-2.12,2.03-4.19,3.09-6.38h0c1.49.94,3.01,1.69,4.56,2.2,1.56.51,3.18.8,4.85.81,1.91.02,3.84,0,5.76-.09,4.85-.21,9.65-.76,14.43-1.56.74-.12,1.47-.29,2.2-.47.36-.1.72-.2,1.08-.31.35-.11.71-.22,1.06-.35.36-.12.71-.25,1.05-.4.35-.14.7-.29,1.04-.45.69-.31,1.36-.67,2.03-1.08-8.4.37-15.49-2.78-21.75-7.79M902.63,292.01c-3.76-3.01-7.36-6.27-10.64-9.78-3.45-3.72-8.73-14.3-13.86-24.45-4.53-8.91-8.95-17.48-11.95-20.75-.68-.75-1.37-1.48-2.07-2.23-4.4-4.59-9.07-8.86-14.09-12.71-.98-.75-1.97-1.48-2.97-2.19-.76-.53-1.52-1.05-2.29-1.57-1.74-1.15-3.51-2.26-5.34-3.31-.6-.34-1.22-.69-1.83-1.03-.37-.21-.75-.41-1.13-.6-1.88-.86-3.68-1.55-5.38-2.09-.69-.22-1.37-.4-2.03-.57-2.99-.75-5.81-1.02-8.68-.89-.54.02-1.08.05-1.63.1-1.08.11-2.18.26-3.29.46-2.8.5-5.75,1.31-9.04,2.37-.39.12-.79.26-1.19.37-8.25,2.64-16.61,5.39-24.56,8.91-3.34,1.48-6.62,3.12-9.79,4.94-7.13,4.14-34.08,39.23-35.84,40.62-.24.18-.62.18-.92.27-.01-.32-.36-3.88-.26-4.16,0,0-32.84,15.89-34.97,17.13-6.2,3.64-13.08,5.43-20.13,6.55-.64.1-1.25.16-1.83.18-.26.01-.53.02-.78.01-.49-.01-.96-.07-1.39-.14-1.08-.21-2-.64-2.74-1.31-.3-.26-.56-.56-.82-.92h0c-.5-.71-.91-1.56-1.24-2.59-.17-.51-.31-1.07-.45-1.67-.39-1.74-.59-3.52-1.02-5.24-1.17-4.57-3.6-8.18-8.53-9.38-2.11-.52-4.37-.71-6.55-.63l-1.51.07c-.31.01-.62.04-.93.05-1.09.05-2.19.11-3.27.19-.43.03-.87.05-1.29.09h-.13c-.4.03-.77.08-1.16.11-.63.05-1.26.1-1.9.15-1.06.1-2.13.21-3.19.33-.29.03-.56.06-.84.09-1.79.21-3.57.44-5.35.71-2.13.32-4.26.68-6.38,1.08-4.92.94-9.2,3.1-12.28,7.16-.67.88-1.18,1.87-1.95,3.12,1.19-.18,1.96-.26,2.74-.39,1.8-.31,3.6-.76,5.42-.84.93-.04,1.88.01,2.85.24,1.68.38,3.28.55,4.81.48,1.02-.04,1.99-.2,2.94-.42.47-.13.94-.26,1.39-.44.24-.08.46-.17.7-.26.38-.16.74-.34,1.11-.55.14-.06.29-.14.44-.23.28-.17.56-.33.83-.51.16-.1.32-.21.49-.33.34-.23.66-.49,1-.75.61-.5,1.21-1.05,1.81-1.66.17-.18.36-.36.54-.53.54-.51,1.12-.97,1.71-1.38.4-.27.81-.53,1.23-.77,1.25-.71,2.59-1.22,3.95-1.54.69-.16,1.38-.27,2.08-.34.24-.02.47-.03.71-.04,2.09-.09,4.23.25,6.28,1.03.69.27,1.36.58,2.03.94,1.88,1.02,3.25,2.51,3.96,4.54,1.02,2.89,1.25,5.89.95,8.88-.88,8.81,6.67,13.02,14.99,16.24l.26.11c.17.07.34.16.53.25l.29.14c-1.24,1.72-3,2.25-4.76,2.89-1.5.55-3.08,1.18-4.29,2.19-2.61,2.19-5,4.64-7.47,7-.75.71-1.03,1.5-.62,2.58.45,1.17.4,2.44-.42,3.47-3.89,4.83-8.44,8.8-14.36,11.04-.94.36-1.89.76-2.79,1.22-.29.16-.55.33-.74.54-.52.53-.64,1.23-.22,2.07.61,1.21,1.12,2.49,1.93,3.55,1.31,1.68,1.28,3.25.41,5.08-1.46,3.07-2.86,6.18-4.08,9.34-1.05,2.64-.14,3.83,2.73,3.78,4.34-.08,8.69-.22,13.03-.34,1.45-.04,2.89-.09,4.34-.13.19,0,.39-.02.56-.05.15-.03.28-.07.41-.11.26-.08.51-.21.71-.37.1-.09.19-.18.27-.27.25-.3.43-.67.5-1.13.51-3.18,1.2-6.35,1.31-9.54.18-5.44,2.46-9.51,7.22-12.25.15-.09.3-.17.46-.24.15-.07.32-.14.47-.2.16-.08.34-.13.51-.17.14-.05.29-.09.43-.11l.13-.03c.14-.04.28-.06.41-.08.18-.03.36-.05.54-.06l.29-.02c.14,0,.28-.01.43,0,.14-.02.27-.01.4,0,.24,0,.47.01.71.05l.3.03c.17.02.33.04.49.06.4.06.8.14,1.2.23l.18.04c.34.07.69.15,1.03.24,2.08.5,4.2,1.08,6.32.98h.32c11.61-.91,23.21-1.69,34.8-2.62,8.91-.7,17.81-1.49,26.71-2.37.76-.08,1.51-.14,2.27-.18,2.89-.12,5.73.08,8.62.81.17.04.35.07.53.1.52.09,1.06.11,1.57.08,1.62-.07,3.23-.6,4.85-1.12,1.62-.52,3.23-1.05,4.87-1.12.61-.03,1.21,0,1.82.13,1.69.34,3.36.73,5.03,1.1v.53c-1.07.55-2.17,1.07-3.24,1.66-1.15.64-2.35,1.21-3.38,2.02-1.55,1.23-1.78,2.82-.84,4.54.3.52.61,1.09,1.07,1.48,1.68,1.46,1.57,3.17.88,5-1.03,2.78-2.09,7.84-3.06,10.63-.39,1.12-.26,1.91.37,2.32.18.12.41.2.68.26.13.03.27.04.43.06l.25.02h.24c.41,0,.83,0,1.23,0,2.36-.03,4.73-.08,7.1-.11,2.38-.03,4.74-.08,7.11-.11h.01s0,.01,0,.01h.01c.68,0,1.35-.02,2.04-.03.38,0,.93-.03,1.12.19.55.64,1.22.75,1.93.78.16,0,.31.01.47.01,1.77.03,3.53.06,5.3.1,3.67.08,7.35.11,11,.31.18,0,.36,0,.53,0,.72-.03,1.23-.25,1.73-.9.09-.12.18-.23.27-.36.3-.4.61-.82.92-1.22h0c.14-.21.3-.41.45-.61.15-.21.31-.4.47-.6.39-.54.8-1.06,1.21-1.6,2.83-3.73,5.69-9.76,8.57-13.46.73-.94,1.4-1.93,2.08-2.9.22-.33.45-.66.67-.99.23-.32.45-.65.69-.96.19-.24.36-.49.56-.73.11-.16.25-.32.37-.48.43-.54.89-1.04,1.37-1.52.33-.33.67-.64,1.02-.94.79-.65,1.57-1.3,2.36-1.95.26-.23.52-.44.78-.66,1.04-.87,2.09-1.75,3.13-2.64,1.04-.87,2.08-1.75,3.12-2.63,1.04-.88,2.08-1.76,3.12-2.63.23-.19.5-.33.86-.57.15.7.26,1.3.41,1.87.85,3.56,1.63,7.12,2.57,10.63.18.66.4,1.27.67,1.78.08.16.16.32.25.47.06.12.14.24.21.34.08.12.16.23.24.33.27.35.58.67.92.94.31.24.63.43.97.6.86.42,1.86.65,2.99.71.17.02.34.02.52.02.31,0,.63,0,.97-.02,5.93-.27,11.56-1.99,17.11-3.91.55-.19,1.03-.93,1.31-1.52,3.49-7.49,6.96-15.03,10.44-22.54.98-2.12,2.03-4.19,3.09-6.38h0c1.49.94,3.01,1.69,4.56,2.2,1.56.51,3.18.8,4.85.81,1.91.02,3.84,0,5.76-.09,4.85-.21,9.65-.76,14.43-1.56.74-.12,1.47-.29,2.2-.47.36-.1.72-.2,1.08-.31.35-.11.71-.22,1.06-.35.36-.12.71-.25,1.05-.4.35-.14.7-.29,1.04-.45.69-.31,1.36-.67,2.03-1.08-8.4.37-15.49-2.78-21.75-7.79"/>
      </g>
      <path class="cls-1" d="M873.12,308.11s-4.53-1.04-6.81-1.56c0,0,6.04-8.4,9.73-12.01.17.08-1.75,9.03-2.92,13.58"/>
      <path class="cls-3" d="M659.79,342.85c-.15-.24-.33-.46-.61-.63-.89-.51-1.94-.74-2.97-.69-1.49.07-2.99.72-3.8,2.04-1.05,1.72-1.6,3.69-2.15,5.54-.08.25-.1.5-.09.73.02.54.27,1.04.64,1.39.37.35.86.58,1.39.7h0s0,0,0,0c0,0,0,0,0,0h0c1.12.25,2.22.36,3.28.53h.06s.06,0,.06,0c1.12-.07,2.06-.28,2.8-.74.74-.45,1.24-1.2,1.32-2.09.22-1.97.28-3.95.32-5.89v-.08c-.02-.32-.12-.58-.27-.83Z"/>
      <path class="cls-3" d="M787.34,347.97c.07-.27.09-.54.09-.8-.02-.41-.15-3.09-.39-3.41-.24-.33-.58-.56-.97-.75h0c-.46-.23-.93-.46-1.4-.69-1.34-.66-2.68-1.34-4.07-1.95-.65-.28-1.31-.43-1.94-.4-1.14.04-2.15.7-2.73,1.8-1.1,2.06-1.91,6.52-2.99,8.95l-.34.77.85.05c1.52.09,2.94.17,4.31.25,1.48.09,2.9.17,4.31.24h0s0,0,0,0c.32.01.65.02.96,0,1.19-.05,2.18-.38,2.9-1.08.72-.71,1.12-1.7,1.39-2.97h0s0,0,0,0h0Z"/>
      <path class="cls-3" d="M912.97,300h0c-.1-.09-.21-.18-.33-.28h0c-.29-.24-.59-.48-.92-.69h0s0,0-.01-.01c0,0,0,0,0,0h0c-.11-.07-.22-.16-.35-.24h0s-.21-.14-.21-.14h-.02s-.34-.21-.34-.21l-.21-.12h0c-3.03-1.9-6.08-3.77-9.12-5.67-1.04-.64-2.07-1.29-3.1-1.95h0c-1.37-.86-2.74-1.74-4.09-2.62-1.05-.68-2.06-1.39-3.01-2.14h0c-.98-.76-1.9-1.56-2.78-2.39-1.61-1.5-3.1-3.16-4.46-4.94h0s0-.01,0-.01c-.15-.18-.28-.38-.44-.58h0c-.76-1.03-2.12-3.51-3.75-6.66-1.64-3.17-3.56-7.05-5.51-10.97-2.11-4.23-4.25-8.51-6.11-12.02-.93-1.75-1.79-3.31-2.54-4.59-.75-1.27-1.39-2.25-1.91-2.86-1.55-1.82-3.2-3.5-4.92-5.05-.37-.34-.75-.68-1.14-1.01h0c-1.14-.98-2.33-1.92-3.55-2.79h0s0,0,0,0c0,0,0,0,0,0h0c-.41-.31-.82-.59-1.22-.86-1.23-.84-2.49-1.63-3.78-2.38l-.16-.09h-.01c-.38-.22-.76-.43-1.14-.63h0c-.87-.48-1.75-.93-2.64-1.36h0c-1.34-.62-2.7-1.2-4.07-1.73h0c-.46-.18-.92-.36-1.39-.52h0c-.92-.33-1.85-.64-2.79-.92h0c-2.36-.72-4.75-1.29-7.18-1.72-.98-.17-1.95-.32-2.92-.45h0s0,0,0,0c-.48-.05-.97-.13-1.47-.18-.99-.1-1.97-.17-2.96-.24-.98-.07-1.97-.12-2.97-.13h0c-.55-.01-1.12-.02-1.68-.03-.55,0-1.1.02-1.64.04h0c-.13,0-.27,0-.43,0h-.13s0,0,0,0c-.21,0-.4,0-.59.01-.43.02-.88.04-1.33.08h0c-.88.05-1.78.12-2.66.21h0s-.01,0-.01,0c-.43.05-.87.1-1.32.15h0c-2.75.32-5.5.81-8.21,1.47h0c-.69.15-1.38.34-2.04.52h0c-.54.14-1.07.29-1.59.44-.86.26-1.72.53-2.58.82-.74.24-1.49.52-2.23.8h0c-.22.07-.43.15-.63.22h0c-.74.29-1.46.58-2.18.88h0c-.4.19-.82.36-1.24.54h0c-.83.35-1.65.74-2.45,1.14h0s0,0,0,0c-.39.2-.79.4-1.21.61-1.19.62-2.37,1.27-3.54,1.96l-.07.04-.03.03c-2.3,1.35-4.51,2.83-6.63,4.46-2.36,1.81-5.95,5.26-10.14,9.5-6.29,6.36-13.88,14.47-20.42,21.32-3.26,3.42-6.27,6.53-8.71,8.93-1.22,1.2-2.3,2.23-3.19,3.03-.89.8-1.61,1.38-2.07,1.66h0c-.19.11-.36.22-.51.31h0s-.27.18-.27.18h0s-.14.07-.19.1l-.47-10.74-.82.38c-14.51,6.83-28.76,14.96-43.07,21.92h0c-.16.07-.27.13-.34.17h0s-.01.01-.01.01c-1.07.53-2.16,1.05-3.24,1.55l-.56.27.29.54c.18.34.42.63.66.92v.06s.14.15.14.15c.13.14.26.26.36.35,1.14,1.02,2.58,1.66,3.89,2.34h0c.16.08.34.19.53.29h0c.15.09.27.15.39.22.1.06.22.14.36.23h0c.23.16.45.3.64.45h0s.22.19.22.19l.22.21c.26.24.46.5.63.79h0c.21.38.29.65.3.85,0,.27-.07.49-.41.88h0l-.17.18c-.44.44-.86.87-1.28,1.31h0c-.43.46-.83.9-1.26,1.35h0c-.84.91-1.67,1.8-2.53,2.67-.62.62-1.24,1.24-1.86,1.86h0c-.53.54-1.08,1.07-1.64,1.61-.41.4-.82.8-1.23,1.19-.61.59-1.24,1.16-1.88,1.74h0c-.15.14-.3.27-.46.41h0s-.01.02-.01.02c-.17.15-.32.29-.47.42h0s0,0,0,0c-.32.29-.64.56-.96.83h0s0,0,0,0c-.28.24-.57.47-.88.73h0c-1.03.84-2.09,1.65-3.17,2.41-1.09.76-2.22,1.48-3.4,2.16h0s0,0,0,0c-.41.26-.73.55-1.06.82h0s0,0,0,0c-.1.09-.23.19-.35.29l-.04.03-.04.04-.74.8,1.19.21h.07s.08,0,.08,0h0c.16.01.32.02.53.01.73-.03,1.81-.18,3.21-.41h0c1.41-.21,3.14-.54,5.08-.91h0c.29-.07.56-.12.83-.17h0s.01,0,.01,0c2.56-.5,5.48-1.12,8.56-1.81h.05c1.02-.23,2.05-.46,3.08-.7h0s0,0,0,0c.01,0,.02,0,.03,0h0s.02,0,.02,0c1.66-.37,3.36-.76,5.05-1.17h0s.29-.06.29-.06c4.52-1.07,8.98-2.18,12.88-3.24h0s.32-.08.32-.08c1.5-.41,2.92-.81,4.2-1.19h0s.07-.02.07-.02c.64-.19,1.25-.37,1.84-.55h0c.54-.17,1.06-.34,1.55-.51h.02s.08-.03.08-.03c.3-.09.56-.19.82-.29h0s.34-.11.34-.11c1.25-.45,2.15-.84,2.7-1.2l.68-.45-.65-.5-.03-.03-.03-.02c-2.94-1.7-5.84-3.39-8.73-5.06-.2-.11-.39-.23-.59-.34,3.99.31,7.96.67,11.9,1.11,9.44,1.03,18.87,2.05,28.31,3.07,9.52,1.05,19.06,2.07,28.58,3.1h.01s0,0,0,0c.12,0,.26.02.41,0,.86-.04,1.59-.43,2.28-.88h0s0,0,0,0c.35-.24.67-.5.99-.74h0s0-.02,0-.02c.31-.26.64-.53.95-.79h0c.3-.26.61-.5.92-.71h0c.12-.08.22-.15.28-.18h.01s0-.01,0-.01c.26-.17.49-.29.75-.38h.01s0-.01,0-.01c.23-.09.44-.13.68-.14.11,0,.15,0,.19,0h.01s.01,0,.01,0c.18.02.33.03.45.03.14,0,.27,0,.39,0,.29-.02.56-.06.82-.2l.02-.02.16-.1.03-.03.03-.03c.17-.16.31-.39.37-.63h0c.08-.31.11-.67.12-1.12h0c.1-4.02.03-8.01.31-11.97.32-4.61.9-9.21,1.45-13.82.22-1.77.97-3.23,2.14-4.57.19-.21.39-.43.59-.63.22-.21.44-.42.68-.62h0c4.45-3.84,9.32-7.09,14.51-9.91-4.17,3.49-8.33,6.98-12.52,10.42h0c-.26.23-.52.45-.76.68h0s0,.01,0,.01c-1.71,1.67-2.76,3.73-3.18,6.06-1.14,6.11-1.52,12.24-1.27,18.43v.06c.22,5.15,1.96,9.83,5.82,13.44v.05s.18.16.18.16c2.78,2.53,5.87,4.67,8.73,7h0c.15.13.31.27.47.41.44.41.82.85,1.06,1.3h0s.03.06.03.06l.04.08h0s0,.01,0,.01c1.1,2.13,2.04,4.36,3.19,6.56.23.45.37.87.38,1.24.01.32-.05.61-.23.91-1.96,3.3-3.96,6.56-6.02,9.81h0s-.17.25-.17.25c-.16.19-.34.36-.55.49h0l-.26.14-.14.05h0c-.11.04-.18.06-.24.06h-.03s-.19.05-.19.05c-.11.01-.21.02-.31.03-.17,0-.34,0-.51,0h0c-1-.1-1.99-.19-3.01-.29h0c-1.01-.09-2.02-.18-3.05-.28l-.5-.05-.13.49c-.24.87-.5,4.11-.74,5.08h0c-.11.44-.16.84-.14,1.21.02.49.17.95.49,1.31h0c.18.21.43.41.73.53h.02s.24.09.24.09h.02s.27.08.27.08h.02s0,0,0,0c.08.02.2.05.34.06h0c.22.03.46.05.73.04h0c1.26-.02,2.54-.05,3.82-.1l.57-.02h.04s.04,0,.04,0h.1s.04,0,.04,0h.07s.03.02.03.02l.18.06.1.05.12.11c.12.11.24.26.38.47h0c.37.54.8,1.16,1.33,1.68h0s0,0,0,0c0,0,0,0,0,0h0c.32.33.7.6,1.1.79.31.15.64.26.98.32h.02s.18.02.18.02h0s.07,0,.07,0l.16.03h.03s.04,0,.04,0c.13,0,.28,0,.46,0,.27-.01.52-.07.76-.13h0s.02,0,.02,0h.06s.07-.02.07-.02c.8-.23,1.55-.69,2.18-1.36h0c.3-.31.57-.67.8-1.05,1.45-2.37,2.72-7.12,3.93-9.6,1.2-2.47,2.49-4.79,4.34-6.74.27-.29.54-.56.83-.82v-.02s.29-.28.29-.28l.26-.27h.02s.01-.03.01-.03c.52-.59.97-1.25,1.4-1.87.7-1.02.94-2.16.89-3.31-.01-.23-.03-.47-.06-.71-.45-3.19-.84-6.37-1.19-9.56h0c-.29-2.53-.56-5.05-.82-7.59-.29-2.65-.57-5.31-.85-7.97h0c-.22-1.97-.49-3.94-.75-5.91.2.04.45.05.61.13h.01s0,.01,0,.01l.27.17h0s.16.14.16.14l.14.14h0c.26.27.46.63.62,1.1.52,1.54,1.1,3.04,1.57,4.55h0c.41,1.35.81,2.68,1.2,4.03h0c.68,2.28,1.35,4.57,2.03,6.84l.02.49.82.03.66.03-.03-.6h0c.21-3.22.41-6.44.63-9.63h0c.2-3.14.41-6.27.61-9.4.53,2.13,1.07,4.25,1.61,6.37h0c.68,2.72,1.37,5.44,2.06,8.17l.03.64.7-.15c.81-.19,1.43-.34,1.94-.5.51-.17.92-.36,1.26-.64l.02-.02.21-.22h.01s.01-.02.01-.02c.26-.3.42-.65.53-1.04.12-.39.19-.83.27-1.36.57-3.95,1.12-7.91,1.68-11.87l.02-.15h0c.25-1.85.53-3.7.8-5.55.31,1.05.53,2.12.65,3.22.07.67.12,1.34.15,2.02.07,1.66.06,3.36.14,5.11.06,1.25.16,2.53.37,3.81l.21,1.26.84-.97c.62-.72,1.16-1.45,1.67-2.19.47-.71.9-1.42,1.3-2.13.28-.48.52-.96.77-1.46.36-.74.69-1.48,1.01-2.21h0c1.39-3.28,2.5-6.58,3.99-9.71,3.35,4.49,6.6,8.87,9.96,13.4l.66.89.38-1.04c2.37-6.46,4.67-12.69,7.06-19.23,1.97,2.36,4,4.59,6.16,6.57h0c.5.46,1.01.91,1.53,1.35,1.03.88,2.08,1.73,3.18,2.53,2.72,2.01,5.59,3.77,8.66,5.29,1.96.96,3.94,1.81,5.94,2.56,1.52.56,3.04,1.06,4.57,1.49,1.55.45,3.11.82,4.69,1.13.4.08.8.14,1.17.22h0s.01,0,.01,0c1.59.28,3.19.49,4.81.64h0c.78.07,1.54.12,2.32.16h0s.22.01.22.01h.01s.01,0,.01,0c.15,0,.33.02.53.02h0c.22.02.41.02.6.03l1.64.03-1.24-1.06ZM834.79,307.48l.02-.04s-.01.03-.02.04h0ZM677.6,315.52h0s0,0,0,0c0,0,0,0,0,0ZM688.59,304.57s.01-.01.02-.02c0,0-.01.01-.02.02h0ZM848.64,229.88h0s0,0,0,0h0s0,0,0,0ZM853.4,232.97s0,0,0,0h0s0,0,0,0ZM801.67,223.91s0,0,0,0h0s0,0,0,0ZM794.75,348.21h0s0,0,0,0c0,0,0,0,0,0Z"/>
      <path class="cls-3" d="M805.25,331.18c-.05-1.23-.36-2.43-.69-3.62-.08-.29-.18-.57-.3-.83h0c-.07-.15-.14-.29-.21-.42h0s-.05-.11-.05-.11h0s-.15-.28-.15-.28v-.02s-.02,0-.02,0c-.1-.16-.21-.33-.36-.52h0c-.27-.37-.59-.73-.96-1.06h0c-.17-.16-.33-.3-.49-.42h0s0-.01,0-.01h-.01c-.18-.16-.36-.29-.52-.41l-.51-.4-.36.54c-1.76,2.6-3.46,5.16-5.22,7.8h0c-.3.43-.58.87-.87,1.3l-.02.03c-.29.43-.59.88-.89,1.32l-.11.16v.02c-.25.37-.49.75-.75,1.13h-.3s.03.61.03.61l.02.46.45.09c1.44.3,2.75.62,4.04.88h0c.51.11,1.01.2,1.51.29h0c.26.05.51.09.77.12h0c.3.04.6.06.89.04,1.32-.05,2.4-.74,3.32-1.78l.16-.18v-.09c1.23-1.48,1.67-3.09,1.6-4.64Z"/>
    </g>
    <g>
      <path class="cls-3" d="M287.03,275.64c.72-4.21-2.26-7.58-6.47-7.55l-47.91.26-3.28,19.25,47.91-.27c4.21-.02,8.35-3.44,9.07-7.65l.69-4.04ZM308.42,323.04l-2.12,11.96c-.31,1.77-2.03,3.22-3.81,3.23l-23.31-.02c-1.78,0-2.81-1.46-2.5-3.23l1.66-9.38c1.11-6.3-3.18-11.31-9.49-11.32l-44.2-.03-3.66,20.67c-.32,1.78-2.03,3.23-3.81,3.23l-25.09-.02c-1.62,0-2.82-1.45-2.5-3.22l15.52-87.56c.32-1.78,2.03-3.23,3.65-3.23l88.23.06c13.76,0,22.95,11.16,20.52,24.89l-2.23,12.6c-1.32,7.43-5.68,14.69-11.97,20.02,4.66,5.66,6.56,13.26,5.13,21.33"/>
      <path class="cls-3" d="M376.85,300.46l26.06-.15c.81,0,1.46-.97,1.25-1.62l-8.84-24.99c-.18-.81-1.32-.8-1.78.02l-17.39,25.13c-.44.66-.11,1.62.69,1.62M417.09,336.55l-4.77-14.22c-.44-1.14-1.46-1.78-2.76-1.78h-46.46c-1.3-.02-2.54.63-3.38,1.76l-9.8,14.22c-.66.97-1.91,1.62-3.04,1.61h-30.27c-1.14-.01-1.58-1.14-.95-1.95l65.03-89.49c1.26-1.62,3.05-2.59,4.83-2.59h28.66c1.78.01,3.23.98,3.91,2.6l33.39,89.51c.34.81-.51,1.94-1.64,1.94h-30.27c-1.14,0-2.16-.66-2.47-1.62"/>
      <path class="cls-3" d="M552.73,268.12l-45.97.25c-1.13.01-2.24.82-2.43,1.95l-2.6,15.21c-.2,1.13.61,2.09,1.74,2.09l45.98-.26c4.21-.02,8.19-3.44,8.93-7.81l.33-1.94.34-1.94c.71-4.2-2.1-7.58-6.32-7.55M589.52,269.24l-1.53,8.56-.17.96-1.45,8.08c-2.45,13.73-15.61,24.85-29.37,24.82l-57.8-.12c-1.13,0-2.24.8-2.45,1.93l-3.83,21.48c-.32,1.78-2.03,3.23-3.82,3.23l-24.93-.05c-1.78,0-2.98-1.46-2.66-3.24l15.64-87.54c.32-1.78,2.03-3.23,3.81-3.22l88.06.19c13.76.03,22.94,11.2,20.49,24.93"/>
      <path class="cls-3" d="M100.79,338.16h-25.09c-1.78,0-2.98-1.46-2.7-3.07l15.48-87.73c.32-1.78,2.03-3.23,3.81-3.23h98.27c1.78,0,2.98,1.46,2.67,3.24l-3,16.96c-.32,1.78-2.01,3.07-3.78,3.07h-66.86c-1.78,0-3.49,1.45-3.81,3.22l-1.03,5.81c-.31,1.78.88,3.24,2.67,3.23h66.86c1.78,0,2.98,1.46,2.67,3.24l-2.85,16.16c-.3,1.77-2.02,3.23-3.81,3.23h-66.86c-1.77,0-3.47,1.29-3.77,3.07l-5.25,29.73c-.28,1.61-2,3.07-3.62,3.07"/>
    </g>
  </g>
  <g>
    <path class="cls-4" d="M419.65,148.68c.32,3.57-8.48,42.68,32.75,42.69h109.82l7.11-36.84h-90.45c-17.06,0-16.27-10.45-15.46-15.13l.97-5h96.25l5.78-32.95h-95.54l.86-3.99c2.15-6.81,5.84-16.15,23.07-16.15h87.24l6.7-36.51-98.97-.09c-17.27-.02-29.29,4.49-37.69,10.67-14.88,10.96-18.76,26.54-20.64,32.26,0,0-2.65,9.4-4.67,18.72-2.12,9.8-4.15,20.65-4.68,24.15-1.5,9.92-2.44,18.15-2.44,18.15"/>
    <path class="cls-4" d="M67.77,148.68c.32,3.57-8.48,42.68,32.75,42.69h109.82l7.1-36.84h-90.45c-17.06,0-16.27-10.45-15.46-15.13l.97-5h96.25l5.79-32.95h-95.54l.86-3.99c2.14-6.81,5.84-16.15,23.06-16.15h87.24l6.7-36.51-98.98-.09c-17.27-.02-29.29,4.49-37.68,10.67-14.89,10.96-18.76,26.54-20.64,32.26,0,0-2.66,9.4-4.67,18.72-2.12,9.8-4.15,20.65-4.68,24.15-1.5,9.92-2.44,18.15-2.44,18.15"/>
    <polygon class="cls-4" points="787.5 44.73 817.59 102.29 869.88 44.91 924.37 44.91 835.59 140.7 823.87 191.16 774.21 191.09 786.53 137.64 737.6 44.73 787.5 44.73"/>
    <polygon class="cls-4" points="303.54 116.82 247.81 44.71 304.29 44.71 335.41 86.47 303.54 116.82"/>
    <polygon class="cls-4" points="364.7 124.73 415.97 191.36 359.49 191.36 332.67 154.91 364.7 124.73"/>
    <path class="cls-2" d="M299.01,174.44l111.82-106.15c29.62-28.06,49.86-33.63,56.09-35.27,6.2-1.64,11.41-1.44,11.41-1.44l-16.09,7.59c-17.22,9.04-36.56,27.52-38.32,29.24l-111.83,106.14c-29.62,28.06-49.86,33.63-56.08,35.27-6.19,1.64-10.24,1.27-10.24,1.27l14.81-7.26c17.7-9.53,36.75-27.72,38.44-29.39"/>
    <path class="cls-2" d="M268.31,174.44l111.71-106.15c29.61-28.06,49.88-33.58,56.07-35.27,6-1.64,16.48-1.44,16.48-1.44l-16.41,7.75c-16.23,8.77-36.21,27.37-37.95,29.08l-111.72,106.14c-29.62,28.06-49.87,33.58-56.06,35.27-6,1.64-15.89,1.27-15.89,1.27l15.44-7.26c16.54-9.01,36.56-27.67,38.33-29.39"/>
    <path class="cls-2" d="M422.47,31.58l-16.75,7.75c-14.64,7.43-36.25,27.36-38.01,29.08l-111.82,106.14c-29.61,28.06-49.86,33.63-56.07,35.27-6.2,1.64-10.13,1.28-10.72,1.27l16.26-7.74c16.15-8.94,37.47-28.9,37.47-28.9l111.82-106.15c29.62-28.06,49.86-33.63,56.08-35.27,6.21-1.64,11.75-1.45,11.75-1.45"/>
    <path class="cls-4" d="M576.55,191.36l26.64-146.64h60.38c19.63.01,46.17.65,62.12,12.54,13.48,10.05,27.24,32.68,22.85,64.57-5.14,37.45-28,54.24-49.88,63.28-15.75,6.51-54.77,6.14-55.05,6.14l-67.05.12ZM704.32,123.87c11.26-41.05-24.01-42.08-43.66-42.41l-20.91.12-13.84,72.96h19c20.88,0,50.97.14,59.42-30.68"/>
  </g>
</svg>